<svg width="91" height="32" viewBox="0 0 91 32" fill="none" xmlns="http://www.w3.org/2000/svg">
<rect x="6" y="7" width="20" height="18" fill="white"/>
<path d="M21.4532 2.66675C26.1598 2.66675 29.3332 5.69475 29.3332 10.2134V21.7734C29.3332 26.2934 26.1598 29.3334 21.4532 29.3334H10.5598C5.83984 29.3334 2.6665 26.2934 2.6665 21.7734V10.2134C2.6665 5.69475 5.83984 2.66675 10.5598 2.66675H21.4532ZM16.2798 10.2934C15.8932 9.90675 15.2532 9.90675 14.8665 10.2934L9.83984 15.2934C9.4665 15.6667 9.4665 16.3334 9.83984 16.7067L14.8665 21.7067C15.2532 22.0934 15.8932 22.0934 16.2798 21.7067C16.6665 21.3067 16.6665 20.6801 16.2798 20.2801L12.9732 17.0001H21.4398C21.9998 17.0001 22.4398 16.5467 22.4398 16.0001C22.4398 15.4401 21.9998 15.0001 21.4398 15.0001H12.9732L16.2798 11.7067C16.4665 11.5201 16.5732 11.2534 16.5732 11.0001C16.5732 10.7481 16.4665 10.4934 16.2798 10.2934Z" fill="#7268E2"/>
<path d="M44.44 22.6V20.04H47.86C48.4733 20.04 48.9333 19.88 49.24 19.56C49.5467 19.24 49.7 18.7867 49.7 18.2C49.7 17.6133 49.5467 17.1667 49.24 16.86C48.9333 16.54 48.4733 16.38 47.86 16.38H44.44V14.4H47.7C48.7133 14.4 49.6133 14.5267 50.4 14.78C51.1867 15.02 51.8067 15.4133 52.26 15.96C52.7133 16.5067 52.94 17.2467 52.94 18.18V18.46C52.94 19.3267 52.74 20.0733 52.34 20.7C51.94 21.3133 51.3533 21.7867 50.58 22.12C49.8067 22.44 48.8467 22.6 47.7 22.6H44.44ZM41.64 22.6V7.78H44.84V22.6H41.64ZM44.44 15.86V13.9H47.32C47.9467 13.9 48.4 13.74 48.68 13.42C48.96 13.1 49.1 12.6733 49.1 12.14C49.1 11.58 48.96 11.14 48.68 10.82C48.4 10.5 47.9467 10.34 47.32 10.34H44.44V7.78H47.12C48.8 7.78 50.0867 8.13333 50.98 8.84C51.8867 9.54667 52.34 10.5533 52.34 11.86V12.16C52.34 13.0667 52.1067 13.7933 51.64 14.34C51.1867 14.8867 50.5667 15.28 49.78 15.52C49.0067 15.7467 48.12 15.86 47.12 15.86H44.44ZM61.9277 22.5V19.26H61.3877V15.74C61.3877 15.18 61.2543 14.76 60.9877 14.48C60.721 14.2 60.2943 14.06 59.7077 14.06C59.4143 14.06 59.0277 14.0667 58.5477 14.08C58.0677 14.0933 57.5743 14.1133 57.0677 14.14C56.561 14.1667 56.101 14.1933 55.6877 14.22V11.52C55.9943 11.4933 56.3543 11.4667 56.7677 11.44C57.181 11.4133 57.6077 11.3933 58.0477 11.38C58.4877 11.3667 58.901 11.36 59.2877 11.36C60.4077 11.36 61.3477 11.52 62.1077 11.84C62.881 12.16 63.4677 12.6467 63.8677 13.3C64.2677 13.94 64.4677 14.7667 64.4677 15.78V22.5H61.9277ZM58.4277 22.78C57.641 22.78 56.9477 22.64 56.3477 22.36C55.761 22.08 55.301 21.68 54.9677 21.16C54.6343 20.6267 54.4677 19.9933 54.4677 19.26C54.4677 18.46 54.6743 17.8067 55.0877 17.3C55.501 16.78 56.081 16.4 56.8277 16.16C57.5743 15.9067 58.4343 15.78 59.4077 15.78H61.7477V17.56H59.3877C58.8277 17.56 58.3943 17.7 58.0877 17.98C57.7943 18.2467 57.6477 18.6133 57.6477 19.08C57.6477 19.52 57.7943 19.88 58.0877 20.16C58.3943 20.4267 58.8277 20.56 59.3877 20.56C59.7477 20.56 60.0677 20.5 60.3477 20.38C60.641 20.2467 60.881 20.0267 61.0677 19.72C61.2543 19.4133 61.361 18.9867 61.3877 18.44L62.1477 19.24C62.081 20 61.8943 20.64 61.5877 21.16C61.2943 21.68 60.881 22.08 60.3477 22.36C59.8277 22.64 59.1877 22.78 58.4277 22.78ZM72.1027 22.88C71.156 22.88 70.3293 22.7267 69.6227 22.42C68.9293 22.1 68.3493 21.6733 67.8827 21.14C67.416 20.6067 67.0693 20.0067 66.8427 19.34C66.616 18.66 66.5027 17.96 66.5027 17.24V16.86C66.5027 16.1133 66.6227 15.4 66.8627 14.72C67.1027 14.0267 67.456 13.4133 67.9227 12.88C68.3893 12.3467 68.9693 11.9267 69.6627 11.62C70.3693 11.3133 71.176 11.16 72.0827 11.16C73.0693 11.16 73.9427 11.3533 74.7027 11.74C75.4627 12.1133 76.0693 12.64 76.5227 13.32C76.976 14 77.2293 14.78 77.2827 15.66H74.1427C74.0893 15.1667 73.8893 14.7533 73.5427 14.42C73.2093 14.0733 72.7227 13.9 72.0827 13.9C71.5493 13.9 71.1027 14.0333 70.7427 14.3C70.396 14.5667 70.136 14.9333 69.9627 15.4C69.7893 15.8667 69.7027 16.42 69.7027 17.06C69.7027 17.6467 69.7827 18.18 69.9427 18.66C70.1027 19.1267 70.356 19.4933 70.7027 19.76C71.0627 20.0133 71.5293 20.14 72.1027 20.14C72.5293 20.14 72.8893 20.0667 73.1827 19.92C73.4893 19.76 73.7293 19.5467 73.9027 19.28C74.0893 19 74.2027 18.68 74.2427 18.32H77.3627C77.3227 19.2267 77.0693 20.0267 76.6027 20.72C76.136 21.4 75.516 21.9333 74.7427 22.32C73.9693 22.6933 73.0893 22.88 72.1027 22.88ZM87.1292 22.5L83.6692 17.38H82.1292L86.5892 11.54H89.9492L85.7492 16.98L85.7892 15.42L90.7292 22.5H87.1292ZM79.4092 22.5V7.9H82.6092V22.5H79.4092Z" fill="white"/>
</svg>
