<svg width="82" height="25" viewBox="0 0 82 25" fill="none" xmlns="http://www.w3.org/2000/svg">
<g clip-path="url(#clip0_14_572)">
<path d="M44.9002 8.81271C44.6936 9.29628 44.4402 9.72027 44.1409 10.0847C43.8416 10.4501 43.5113 10.7549 43.1492 11.0022C42.4258 11.5155 41.6106 11.7727 40.7017 11.7727C40.0821 11.7727 39.4984 11.6575 38.9517 11.4262C38.4039 11.1948 37.922 10.8741 37.503 10.463C37.0849 10.0519 36.7547 9.57133 36.5112 9.02123C36.2688 8.47114 36.147 7.87835 36.147 7.24087C36.147 6.6451 36.2578 6.06919 36.4803 5.51413C36.7028 4.95907 37.0151 4.47153 37.4172 4.04952C37.8202 3.62851 38.2972 3.28892 38.8499 3.03175C39.4026 2.77458 40.0043 2.64648 40.6548 2.64648C41.3053 2.64648 41.91 2.76762 42.4667 3.00891C43.0244 3.2502 43.5043 3.58184 43.9074 4.00286C44.3105 4.42387 44.6248 4.92034 44.8523 5.4903C45.0798 6.06025 45.1935 6.66992 45.1935 7.31733C45.1935 7.49209 45.1885 7.62316 45.1775 7.71054C45.1676 7.79792 45.1516 7.89324 45.1317 7.99551H38.6883C38.7711 8.50986 39.0006 8.90804 39.3777 9.19004C39.7549 9.47303 40.1958 9.61403 40.7017 9.61403C41.0938 9.61403 41.4091 9.53658 41.6466 9.38267C41.884 9.22876 42.0906 9.03811 42.2662 8.81271H44.9002V8.81271ZM42.6233 6.26976C42.5924 6.14664 42.5385 5.99968 42.4607 5.83088C42.3829 5.66109 42.2672 5.49923 42.1125 5.34533C41.9579 5.19142 41.7613 5.06234 41.5238 4.96006C41.2864 4.85779 41.002 4.80615 40.6718 4.80615C40.3415 4.80615 40.0572 4.85779 39.8197 4.96006C39.5822 5.06333 39.3857 5.19142 39.231 5.34533C39.0764 5.49923 38.9597 5.66109 38.8828 5.83088C38.805 6.00067 38.7511 6.14664 38.7202 6.26976H42.6233Z" fill="white"/>
<path d="M27.9107 8.44794C27.8009 8.58993 27.6692 8.71802 27.5156 8.83321C27.3619 8.9474 27.1783 9.04371 26.9638 9.12017C26.7503 9.19663 26.4999 9.23436 26.2155 9.23436C25.8863 9.23436 25.5899 9.17677 25.3265 9.06258C25.0631 8.94839 24.8357 8.78654 24.6441 8.58C24.4525 8.37248 24.3039 8.12722 24.2001 7.84323C24.1672 7.75288 24.1402 7.66351 24.1183 7.57017C24.0694 7.36562 24.0444 7.15015 24.0444 6.92575C24.0444 6.72418 24.0634 6.52757 24.1073 6.33891C24.1293 6.22174 24.1622 6.10954 24.2001 6.00032C24.3039 5.71137 24.4525 5.46313 24.6441 5.2556C24.8357 5.04808 25.0641 4.88722 25.3265 4.77204C25.5899 4.65785 25.8863 4.60522 26.2155 4.61614C26.5009 4.61614 26.7503 4.65387 26.9638 4.73033C27.1773 4.80679 27.3619 4.90509 27.5156 5.02524C27.6692 5.14538 27.8009 5.28142 27.9107 5.43433C28.0204 5.58725 28.1132 5.73718 28.19 5.8901L30.6225 4.88821C30.5407 4.70551 30.4439 4.52479 30.3372 4.35301C30.0468 3.88334 29.6896 3.48219 29.2676 3.14955C28.8456 2.81691 28.3656 2.55477 27.8279 2.36313C27.2901 2.17249 26.7204 2.07617 26.1167 2.07617C25.4363 2.07617 24.8027 2.20128 24.2161 2.4525C23.6324 2.70372 23.1245 3.04728 22.6935 3.48418C22.2625 3.92108 21.9233 4.43443 21.6788 5.02325C21.6409 5.11361 21.608 5.20099 21.575 5.29333C21.3994 5.80371 21.3116 6.3409 21.3116 6.90589C21.3116 7.50662 21.4074 8.07161 21.608 8.60086C21.6329 8.66937 21.6569 8.73689 21.6878 8.8054C21.9372 9.39522 22.2775 9.91056 22.7105 10.3534C23.1415 10.7953 23.6543 11.1418 24.249 11.393C24.8466 11.6443 25.4912 11.7694 26.1826 11.7694C26.7972 11.7694 27.3699 11.6711 27.9017 11.4745C28.4335 11.2779 28.9054 11.0107 29.3165 10.6722C29.7276 10.3336 30.0758 9.93538 30.3611 9.47664C30.4539 9.3267 30.5397 9.17379 30.6135 9.0179L28.189 8.01899C28.1132 8.16396 28.0204 8.30595 27.9107 8.44794Z" fill="white"/>
<path d="M31.2371 2.64042H33.8163V3.61152H33.8492C33.9041 3.5023 33.9819 3.37321 34.0807 3.22526C34.1804 3.07731 34.3151 2.93731 34.4858 2.80525C34.6564 2.67318 34.8769 2.56098 35.1473 2.46764C35.4166 2.37431 35.7509 2.32764 36.148 2.32764V5.07513C35.8277 5.08606 35.5364 5.11386 35.272 5.15755C35.0076 5.20124 34.7781 5.28365 34.5855 5.40479C34.393 5.52593 34.2433 5.69573 34.1395 5.91517C34.0348 6.13461 33.9829 6.41462 33.9829 6.75421V11.7726H31.2381V2.64042H31.2371Z" fill="white"/>
<path d="M52.5578 2.64906V3.84258H52.5269C52.444 3.70953 52.3363 3.57349 52.2016 3.43448C52.0679 3.29547 51.8973 3.16738 51.6908 3.04922C51.4842 2.93105 51.2418 2.83375 50.9634 2.7563C50.685 2.67885 50.3697 2.64111 50.0195 2.64111C49.4419 2.64111 48.8921 2.74637 48.3713 2.95687C47.8505 3.16738 47.3935 3.47023 47.0024 3.86542C46.6103 4.26062 46.296 4.74021 46.0585 5.3052C45.8211 5.87019 45.7023 6.50072 45.7023 7.19975C45.7023 7.81538 45.8001 8.39825 45.9967 8.94735C46.1922 9.49645 46.4736 9.982 46.8398 10.403C47.2029 10.824 47.6569 11.1577 48.1937 11.4039C48.7305 11.6502 49.3391 11.7733 50.0195 11.7733C50.267 11.7733 50.5174 11.7504 50.7698 11.7038C51.0223 11.6571 51.2627 11.5826 51.4892 11.4804C51.7157 11.3781 51.9172 11.249 52.0928 11.0951C52.2684 10.9412 52.4121 10.7615 52.5259 10.5559H52.5568V11.7723H55.125V2.6431L52.5578 2.64906ZM52.45 7.89184C52.3782 8.14802 52.2565 8.38732 52.0869 8.60776C51.9162 8.82819 51.6947 9.01288 51.4214 9.16182C51.148 9.31077 50.8098 9.38524 50.4077 9.38524C50.0156 9.38524 49.6853 9.31077 49.4169 9.16182C49.1485 9.01288 48.929 8.82819 48.7594 8.60776C48.5888 8.38732 48.4651 8.15398 48.3882 7.90673C48.3104 7.66048 48.2725 7.43409 48.2725 7.22954C48.2725 6.98329 48.3134 6.73207 48.3962 6.4749C48.479 6.21872 48.6077 5.98239 48.7833 5.76692C48.9589 5.55145 49.1784 5.37471 49.4409 5.23569C49.7043 5.09668 50.0215 5.02817 50.3927 5.02817C50.7539 5.02817 51.0712 5.09271 51.3445 5.2208C51.6179 5.34889 51.8444 5.51869 52.025 5.72919C52.2056 5.9397 52.3393 6.17304 52.4271 6.43022C52.5149 6.6864 52.5588 6.94357 52.5588 7.19975C52.5578 7.4043 52.5219 7.63467 52.45 7.89184Z" fill="white"/>
<path d="M59.6637 2.63827H60.9428V4.64304H59.6637V11.7734H57.0097V4.64304H55.6987V2.63827H57.0097V0H59.6637V2.63827Z" fill="white"/>
<path d="M64.1085 2.07229H61.4546V0H64.1085V2.07229ZM64.1085 11.7724H61.4546V2.63827H64.1085V11.7724Z" fill="white"/>
<path d="M70.971 2.64116L69.219 8.33375H69.186L67.433 2.64116H64.5895L67.879 11.7723H70.508L73.8155 2.63818L70.971 2.64116Z" fill="white"/>
<path d="M81.7057 8.81271C81.4991 9.29628 81.2457 9.72027 80.9464 10.0847C80.6471 10.4501 80.3168 10.7549 79.9546 11.0022C79.2313 11.5155 78.4161 11.7727 77.5072 11.7727C76.8876 11.7727 76.3039 11.6575 75.7572 11.4262C75.2094 11.1948 74.7275 10.8741 74.3084 10.463C73.8904 10.0519 73.5591 9.57133 73.3167 9.02123C73.0742 8.47114 72.9525 7.87835 72.9525 7.24087C72.9525 6.6451 73.0633 6.06919 73.2858 5.51413C73.5083 4.95907 73.8205 4.47153 74.2226 4.04952C74.6257 3.62851 75.1026 3.28892 75.6554 3.03175C76.2081 2.77458 76.8098 2.64648 77.4603 2.64648C78.1108 2.64648 78.7154 2.76762 79.2722 3.00891C79.8299 3.2502 80.3098 3.58184 80.7129 4.00286C81.116 4.42387 81.4303 4.92034 81.6578 5.4903C81.8852 6.06025 81.999 6.66992 81.999 7.31733C81.999 7.49209 81.994 7.62316 81.983 7.71054C81.9731 7.79792 81.9571 7.89324 81.9371 7.99551H75.4938C75.5766 8.50986 75.806 8.90804 76.1832 9.19004C76.5603 9.47303 77.0013 9.61403 77.5072 9.61403C77.8993 9.61403 78.2146 9.53658 78.452 9.38267C78.6895 9.22876 78.896 9.03811 79.0716 8.81271H81.7057V8.81271ZM79.4278 6.26976C79.3969 6.14664 79.343 5.99968 79.2652 5.83088C79.1874 5.66109 79.0716 5.49923 78.917 5.34533C78.7623 5.19142 78.5658 5.06234 78.3283 4.96006C78.0909 4.85779 77.8065 4.80615 77.4763 4.80615C77.146 4.80615 76.8616 4.85779 76.6242 4.96006C76.3867 5.06333 76.1902 5.19142 76.0355 5.34533C75.8809 5.49923 75.7641 5.66109 75.6873 5.83088C75.6095 6.00067 75.5556 6.14664 75.5247 6.26976H79.4278Z" fill="white"/>
<path d="M16.2671 0H8.13354V8.09454H16.2671V0Z" fill="white"/>
<path d="M8.13355 8.09473H0V16.1893H8.13355V8.09473Z" fill="white"/>
<path d="M16.2671 16.1899H8.13354V24.2845H16.2671V16.1899Z" fill="white"/>
<path d="M46.8807 15.1583V16.3519H46.8497C46.7669 16.2188 46.6592 16.0828 46.5245 15.9438C46.3908 15.8047 46.2202 15.6767 46.0136 15.5585C45.8071 15.4403 45.5647 15.343 45.2863 15.2656C45.0079 15.1881 44.6926 15.1504 44.3424 15.1504C43.7647 15.1504 43.215 15.2556 42.6942 15.4661C42.1734 15.6767 41.7164 15.9795 41.3243 16.3747C40.9322 16.7699 40.6179 17.2495 40.3804 17.8145C40.143 18.3795 40.0242 19.01 40.0242 19.709C40.0242 20.3247 40.122 20.9075 40.3186 21.4566C40.5141 22.0057 40.7955 22.4913 41.1616 22.9123C41.5248 23.3333 41.9788 23.6669 42.5156 23.9132C43.0524 24.1594 43.661 24.2826 44.3414 24.2826C44.5889 24.2826 44.8393 24.2597 45.0917 24.2131C45.3442 24.1664 45.5846 24.0919 45.8111 23.9896C46.0376 23.8874 46.2391 23.7583 46.4147 23.6044C46.5903 23.4505 46.734 23.2707 46.8477 23.0652H46.8787V24.2816H49.4469V15.1524L46.8807 15.1583ZM46.7729 20.4011C46.7011 20.6573 46.5794 20.8966 46.4097 21.117C46.2391 21.3375 46.0176 21.5222 45.7443 21.6711C45.4709 21.82 45.1326 21.8945 44.7306 21.8945C44.3384 21.8945 44.0082 21.82 43.7398 21.6711C43.4714 21.5222 43.2529 21.3375 43.0823 21.117C42.9117 20.8966 42.788 20.6623 42.7111 20.416C42.6333 20.1698 42.5954 19.9434 42.5954 19.7388C42.5954 19.4926 42.6363 19.2414 42.7191 18.9842C42.8019 18.728 42.9306 18.4917 43.1062 18.2762C43.2818 18.0607 43.5003 17.884 43.7637 17.745C44.0271 17.606 44.3444 17.5374 44.7156 17.5374C45.0768 17.5374 45.394 17.602 45.6674 17.7301C45.9408 17.8582 46.1673 18.028 46.3479 18.2385C46.5285 18.449 46.6622 18.6823 46.75 18.9395C46.8378 19.1957 46.8817 19.4529 46.8817 19.709C46.8807 19.9136 46.8448 20.1449 46.7729 20.4011Z" fill="white"/>
<path d="M31.2371 12.5122H33.8911V16.2666H33.923C34.1465 15.8634 34.4638 15.5774 34.8739 15.4077C35.2839 15.2379 35.7289 15.1535 36.2088 15.1535C36.4224 15.1535 36.6409 15.1723 36.8644 15.2091C37.0879 15.2468 37.3064 15.3044 37.5199 15.3838C37.7334 15.4633 37.9359 15.5645 38.1275 15.6857C38.3191 15.8078 38.4847 15.9538 38.6234 16.1236C38.8149 16.346 38.9646 16.5634 39.0714 16.7759C39.1781 16.9884 39.2609 17.2218 39.3188 17.476C39.3777 17.7302 39.4146 18.0092 39.4305 18.311C39.4465 18.6129 39.4545 18.9604 39.4545 19.3526V24.2846H36.8005V19.4797C36.8005 19.3735 36.7925 19.2176 36.7766 19.0101C36.7606 18.8035 36.7097 18.599 36.6249 18.3974C36.5391 18.1959 36.3984 18.0181 36.2009 17.8642C36.0033 17.7103 35.7289 17.6339 35.3777 17.6339C35.0046 17.6339 34.7172 17.7053 34.5147 17.8483C34.3121 17.9913 34.1655 18.1581 34.0747 18.3498C33.9839 18.5404 33.931 18.734 33.915 18.9306C33.8991 19.1272 33.8911 19.2782 33.8911 19.3844V24.2846H31.2371V12.5122Z" fill="white"/>
<path d="M49.9706 19.717C49.9706 19.1907 50.0664 18.6565 50.259 18.1144C50.4506 17.5722 50.7389 17.0827 51.122 16.6438C51.5052 16.2049 51.9881 15.8465 52.5687 15.5674C53.1494 15.2884 53.8339 15.1494 54.6221 15.1494C55.4103 15.1494 56.0947 15.2884 56.6754 15.5674C57.2561 15.8465 57.738 16.2049 58.1221 16.6438C58.5053 17.0827 58.7936 17.5722 58.9852 18.1144C59.1768 18.6565 59.2735 19.1907 59.2735 19.717C59.2735 20.2433 59.1778 20.7775 58.9852 21.3196C58.7936 21.8618 58.5053 22.3523 58.1221 22.7902C57.738 23.2291 57.2561 23.5875 56.6754 23.8655C56.0947 24.1446 55.4103 24.2836 54.6221 24.2836C53.8339 24.2836 53.1494 24.1436 52.5687 23.8655C51.9881 23.5865 51.5052 23.2291 51.122 22.7902C50.7379 22.3513 50.4506 21.8608 50.259 21.3196C50.0664 20.7775 49.9706 20.2433 49.9706 19.717ZM52.5528 19.717C52.5528 20.0268 52.6077 20.3157 52.7164 20.5838C52.8252 20.8519 52.9758 21.0823 53.1674 21.2729C53.359 21.4636 53.5795 21.6135 53.8289 21.7218C54.0773 21.83 54.3427 21.8846 54.6221 21.8846C54.9015 21.8846 55.1669 21.83 55.4153 21.7218C55.6637 21.6135 55.8842 21.4636 56.0768 21.2729C56.2684 21.0823 56.419 20.8529 56.5278 20.5838C56.6365 20.3157 56.6914 20.0268 56.6914 19.717C56.6914 19.4072 56.6365 19.1182 56.5278 18.8501C56.419 18.582 56.2684 18.3527 56.0768 18.161C55.8852 17.9704 55.6647 17.8205 55.4153 17.7122C55.1669 17.604 54.9015 17.5494 54.6221 17.5494C54.3417 17.5494 54.0773 17.604 53.8289 17.7122C53.5805 17.8205 53.36 17.9704 53.1674 18.161C52.9748 18.3517 52.8252 18.582 52.7164 18.8501C52.6077 19.1192 52.5528 19.4082 52.5528 19.717Z" fill="white"/>
<path d="M27.9107 20.9601C27.8009 21.1021 27.6692 21.2302 27.5156 21.3454C27.3619 21.4596 27.1783 21.5559 26.9638 21.6324C26.7503 21.7088 26.4999 21.7466 26.2155 21.7466C25.8863 21.7466 25.5899 21.689 25.3265 21.5748C25.0631 21.4606 24.8357 21.2987 24.6441 21.0912C24.4525 20.8837 24.3039 20.6384 24.2001 20.3544C24.1672 20.2641 24.1402 20.1747 24.1183 20.0814C24.0694 19.8768 24.0444 19.6614 24.0444 19.437C24.0444 19.2354 24.0634 19.0388 24.1073 18.8501C24.1293 18.733 24.1622 18.6208 24.2001 18.5115C24.3039 18.2226 24.4525 17.9743 24.6441 17.7668C24.8357 17.5593 25.0641 17.3984 25.3265 17.2842C25.5899 17.1701 25.8863 17.1174 26.2155 17.1283C26.5009 17.1283 26.7503 17.1661 26.9638 17.2425C27.1773 17.319 27.3619 17.4173 27.5156 17.5374C27.6692 17.6576 27.8009 17.7936 27.9107 17.9465C28.0204 18.0995 28.1132 18.2494 28.19 18.4023L30.6225 17.4004C30.5407 17.2177 30.4439 17.037 30.3372 16.8652C30.0468 16.3956 29.6896 15.9944 29.2676 15.6618C28.8456 15.3291 28.3656 15.067 27.8279 14.8753C27.2901 14.6847 26.7204 14.5884 26.1167 14.5884C25.4363 14.5884 24.8027 14.7135 24.2161 14.9647C23.6324 15.2159 23.1245 15.5595 22.6935 15.9964C22.2625 16.4333 21.9233 16.9466 21.6788 17.5355C21.6409 17.6258 21.608 17.7132 21.575 17.8055C21.3994 18.3159 21.3116 18.8531 21.3116 19.4181C21.3116 20.0188 21.4074 20.5838 21.608 21.1131C21.6329 21.1816 21.6569 21.2491 21.6878 21.3176C21.9372 21.9074 22.2775 22.4228 22.7105 22.8646C23.1415 23.3065 23.6543 23.653 24.249 23.9043C24.8466 24.1555 25.4912 24.2806 26.1826 24.2806C26.7972 24.2806 27.3699 24.1823 27.9017 23.9857C28.4335 23.7891 28.9054 23.522 29.3165 23.1834C29.7276 22.8448 30.0758 22.4466 30.3611 21.9879C30.4539 21.8379 30.5397 21.685 30.6135 21.5291L28.189 20.5302C28.1132 20.6762 28.0204 20.8182 27.9107 20.9601Z" fill="white"/>
<path d="M64.1415 17.6348C64.1415 17.5931 64.1335 17.5316 64.1176 17.4521C64.1016 17.3727 64.0667 17.2982 64.0138 17.2297C63.9599 17.1612 63.8781 17.0996 63.7654 17.047C63.6536 16.9944 63.502 16.9676 63.3094 16.9676C63.032 16.9676 62.8385 17.0371 62.7257 17.1741C62.614 17.3121 62.5581 17.4392 62.5581 17.5554C62.5581 17.7997 62.6968 17.9933 62.9732 18.1363C63.2505 18.2793 63.5648 18.4044 63.916 18.5106C64.2892 18.6169 64.6623 18.7311 65.0355 18.8522C65.4086 18.9743 65.7409 19.1362 66.0342 19.3377C66.3276 19.5393 66.564 19.7935 66.7456 20.1013C66.9262 20.4091 67.017 20.8014 67.017 21.278C67.017 21.7447 66.9212 22.1637 66.7296 22.5351C66.5381 22.9064 66.2767 23.2222 65.9464 23.4813C65.6162 23.7415 65.232 23.9401 64.795 24.0781C64.358 24.2151 63.8941 24.2846 63.4042 24.2846C63.063 24.2846 62.6958 24.2419 62.3017 24.1575C61.9076 24.0721 61.5344 23.9192 61.1822 23.6958C60.83 23.4734 60.5267 23.1735 60.2713 22.7972C60.0159 22.4209 59.8552 21.9413 59.7914 21.3574H62.4284C62.4603 21.559 62.5242 21.7159 62.62 21.8271C62.7157 21.9383 62.8195 22.0177 62.9323 22.0654C63.044 22.113 63.1478 22.1428 63.2435 22.1528C63.3393 22.1637 63.4032 22.1687 63.4351 22.1687C63.6586 22.1687 63.8691 22.1081 64.0667 21.9859C64.2632 21.8638 64.362 21.697 64.362 21.4845C64.362 21.3147 64.3191 21.1767 64.2343 21.0704C64.1485 20.9652 64.0128 20.8639 63.8262 20.7686C63.6397 20.6733 63.3972 20.573 63.0989 20.4667C62.8006 20.3605 62.4374 20.2284 62.0113 20.0686C61.724 19.9732 61.4516 19.8561 61.1962 19.718C60.9408 19.58 60.7163 19.4162 60.5247 19.2246C60.3332 19.0339 60.1815 18.8164 60.0687 18.5722C59.957 18.3289 59.9011 18.0578 59.9011 17.7609C59.9011 17.326 59.9939 16.9288 60.1805 16.5674C60.3671 16.207 60.6175 15.8992 60.9318 15.645C61.2461 15.3908 61.6112 15.1942 62.0263 15.0561C62.4424 14.9181 62.8794 14.8496 63.3373 14.8496C63.6247 14.8496 63.9549 14.8873 64.3291 14.9608C64.7022 15.0353 65.0564 15.1733 65.3917 15.3739C65.7279 15.5755 66.0232 15.8565 66.2787 16.2169C66.5341 16.5773 66.6887 17.05 66.7426 17.6329H64.1415V17.6348Z" fill="white"/>
</g>
<defs>
<clipPath id="clip0_14_572">
<rect width="82" height="24.2846" fill="white"/>
</clipPath>
</defs>
</svg>
