<svg width="24" height="24" viewBox="0 0 24 24" fill="none" xmlns="http://www.w3.org/2000/svg">
<path d="M11.3445 3.10369C11.54 3.19346 11.7056 3.33741 11.8218 3.51846C11.938 3.69951 11.9998 3.91007 12 4.12519V19.8752C11.9995 20.0901 11.9376 20.3004 11.8214 20.4813C11.7053 20.6622 11.5399 20.806 11.3446 20.8959C11.1494 20.9858 10.9325 21.018 10.7196 20.9886C10.5067 20.9592 10.3066 20.8696 10.143 20.7302L5.208 16.5002H2.625C1.92881 16.5002 1.26113 16.2236 0.768845 15.7313C0.276562 15.2391 0 14.5714 0 13.8752L0 10.1252C0 8.67619 1.176 7.50019 2.625 7.50019H5.2095L10.143 3.27019C10.3064 3.13054 10.5065 3.04065 10.7194 3.01114C10.9323 2.98163 11.1493 3.01375 11.3445 3.10369ZM9.75 6.57019L6.357 9.47869C6.15337 9.6539 5.89363 9.75024 5.625 9.75019H2.625C2.52554 9.75019 2.43016 9.7897 2.35984 9.86002C2.28951 9.93035 2.25 10.0257 2.25 10.1252V13.8752C2.25 14.0822 2.418 14.2502 2.625 14.2502H5.625C5.8935 14.2502 6.153 14.3462 6.357 14.5202L9.75 17.4302V6.57019ZM18.894 3.51319C19.1049 3.30251 19.3909 3.18418 19.689 3.18418C19.9871 3.18418 20.2731 3.30251 20.484 3.51319C21.5984 4.6275 22.4823 5.9504 23.0854 7.40634C23.6885 8.86229 23.9989 10.4228 23.9989 11.9987C23.9989 13.5746 23.6885 15.1351 23.0854 16.591C22.4823 18.047 21.5984 19.3699 20.484 20.4842C20.2706 20.6828 19.9885 20.791 19.6971 20.7859C19.4056 20.7809 19.1274 20.6631 18.921 20.4572C18.7151 20.2508 18.5973 19.9726 18.5923 19.6811C18.5872 19.3897 18.6954 19.1076 18.894 18.8942C19.7995 17.9888 20.5178 16.9139 21.0079 15.7309C21.4979 14.5479 21.7502 13.2799 21.7502 11.9994C21.7502 10.7189 21.4979 9.45098 21.0079 8.26798C20.5178 7.08497 19.7995 6.01008 18.894 5.10469C18.6833 4.89375 18.565 4.60781 18.565 4.30969C18.565 4.01156 18.6833 3.72413 18.894 3.51319ZM17.304 6.69469L17.3025 6.69619C18.7085 8.10265 19.4984 10.01 19.4984 11.9987C19.4984 13.9874 18.7085 15.8947 17.3025 17.3012C17.165 17.4493 16.9901 17.5575 16.7962 17.6146C16.6023 17.6716 16.3967 17.6753 16.2009 17.6252C16.0051 17.5751 15.8264 17.4732 15.6837 17.3301C15.541 17.187 15.4396 17.0081 15.39 16.8122C15.3399 16.6166 15.3434 16.4112 15.4001 16.2174C15.4569 16.0237 15.5648 15.8488 15.7125 15.7112C16.2001 15.2237 16.5868 14.6449 16.8507 14.0079C17.1146 13.3709 17.2504 12.6882 17.2504 11.9987C17.2504 11.3092 17.1146 10.6265 16.8507 9.98948C16.5868 9.35248 16.2001 8.7737 15.7125 8.28619C15.5015 8.07514 15.3829 7.7889 15.3829 7.49044C15.3829 7.19197 15.5015 6.90573 15.7125 6.69469C15.9235 6.48364 16.2098 6.36508 16.5082 6.36508C16.8067 6.36508 17.093 6.48364 17.304 6.69469Z" fill="white"/>
</svg>
