<svg width="211" height="40" viewBox="0 0 211 40" fill="none" xmlns="http://www.w3.org/2000/svg">
<g clip-path="url(#clip0_17_1380)">
<path d="M3.94925 36.0508H23.5261C30.4373 36.0508 36.0508 30.4372 36.0508 23.5261V3.94922H16.4739C9.56279 3.94922 3.94925 9.56276 3.94925 16.4739V36.0508Z" stroke="url(#paint0_linear_17_1380)" stroke-width="6.7701" stroke-miterlimit="10"/>
<path d="M20.0283 25.1058C22.8325 25.1058 25.1058 22.8325 25.1058 20.0283C25.1058 17.224 22.8325 14.9507 20.0283 14.9507C17.224 14.9507 14.9507 17.224 14.9507 20.0283C14.9507 22.8325 17.224 25.1058 20.0283 25.1058Z" fill="#D953D1"/>
</g>
<path d="M66.6417 9.29485V13.7391H60.6079V32.0678H55.0606V13.7391H49.0268V9.29485H66.6417Z" fill="url(#paint1_linear_17_1380)"/>
<path d="M68.3228 22.9846C68.3228 21.1247 68.6688 19.4918 69.3609 18.0861C70.0746 16.6804 71.037 15.599 72.248 14.8421C73.4591 14.0852 74.8108 13.7067 76.3031 13.7067C77.579 13.7067 78.6928 13.9662 79.6444 14.4853C80.6176 15.0043 81.3637 15.6855 81.8827 16.529V15.0946C81.8827 14.4714 82.3879 13.9662 83.0111 13.9662H86.3016C86.9248 13.9662 87.43 14.4714 87.43 15.0946V32.0678H81.8827V29.505C81.3421 30.3485 80.5851 31.0297 79.6119 31.5487C78.6604 32.0678 77.5466 32.3273 76.2706 32.3273C74.8 32.3273 73.4591 31.9488 72.248 31.1919C71.037 30.4133 70.0746 29.3212 69.3609 27.9154C68.6688 26.4881 68.3228 24.8445 68.3228 22.9846ZM81.8827 23.017C81.8827 21.6329 81.4935 20.5407 80.7149 19.7406C79.958 18.9404 79.028 18.5403 77.9251 18.5403C76.8221 18.5403 75.8813 18.9404 75.1028 19.7406C74.3458 20.5191 73.9674 21.6005 73.9674 22.9846C73.9674 24.3687 74.3458 25.4716 75.1028 26.2934C75.8813 27.0936 76.8221 27.4937 77.9251 27.4937C79.028 27.4937 79.958 27.0936 80.7149 26.2934C81.4935 25.4933 81.8827 24.4011 81.8827 23.017Z" fill="url(#paint2_linear_17_1380)"/>
<path d="M95.8621 10.883C96.4853 10.883 96.9904 11.3882 96.9904 12.0114V32.0678H91.4432V12.0114C91.4432 11.3882 91.9484 10.883 92.5715 10.883H95.8621Z" fill="url(#paint3_linear_17_1380)"/>
<path d="M112.073 32.0678L106.558 24.4768V32.0678H101.01V9.19048C101.01 8.56731 101.516 8.06213 102.139 8.06213H105.429C106.053 8.06213 106.558 8.56731 106.558 9.19048V21.3301L112.04 13.9662H118.885L111.359 23.0494L118.95 32.0678H112.073Z" fill="url(#paint4_linear_17_1380)"/>
<path d="M139.619 9.39217L131.023 32.0678H128.428L119.831 9.39217H122.296L129.725 29.6023L137.219 9.39217H139.619Z" fill="url(#paint5_linear_17_1380)"/>
<path d="M144.167 11.0142C143.713 11.0142 143.323 10.852 142.999 10.5276C142.675 10.2032 142.512 9.80308 142.512 9.32729C142.512 8.85151 142.675 8.46223 142.999 8.15945C143.323 7.83505 143.713 7.67285 144.167 7.67285C144.621 7.67285 145.01 7.83505 145.335 8.15945C145.659 8.46223 145.821 8.85151 145.821 9.32729C145.821 9.80308 145.659 10.2032 145.335 10.5276C145.01 10.852 144.621 11.0142 144.167 11.0142ZM145.302 14.3555V32.0678H143.031V14.3555H145.302Z" fill="url(#paint6_linear_17_1380)"/>
<path d="M156.543 32.3273C154.51 32.3273 152.845 31.8623 151.548 30.9324C150.272 29.9808 149.558 28.694 149.406 27.072H151.742C151.85 28.0668 152.315 28.8778 153.137 29.505C153.981 30.1106 155.105 30.4133 156.511 30.4133C157.744 30.4133 158.706 30.1214 159.398 29.5375C160.112 28.9535 160.469 28.229 160.469 27.364C160.469 26.7584 160.274 26.261 159.885 25.8717C159.495 25.4824 158.998 25.1797 158.392 24.9634C157.808 24.7255 157.008 24.4768 155.992 24.2173C154.673 23.8713 153.602 23.5252 152.78 23.1792C151.958 22.8332 151.256 22.3249 150.672 21.6545C150.109 20.9625 149.828 20.0433 149.828 18.8971C149.828 18.032 150.088 17.2319 150.607 16.4965C151.126 15.7612 151.861 15.1773 152.813 14.7448C153.764 14.3123 154.846 14.096 156.057 14.096C157.96 14.096 159.495 14.5826 160.663 15.5558C161.831 16.5074 162.458 17.8266 162.545 19.5135H160.274C160.209 18.4754 159.798 17.6428 159.041 17.0156C158.306 16.3668 157.289 16.0424 155.992 16.0424C154.846 16.0424 153.916 16.3127 153.202 16.8534C152.488 17.3941 152.131 18.0645 152.131 18.8647C152.131 19.5567 152.337 20.1298 152.748 20.584C153.18 21.0165 153.71 21.3626 154.337 21.6221C154.965 21.86 155.808 22.1303 156.868 22.4331C158.144 22.7791 159.16 23.1143 159.917 23.4387C160.674 23.7631 161.323 24.2389 161.863 24.8661C162.404 25.4933 162.685 26.3259 162.707 27.364C162.707 28.3155 162.447 29.1698 161.928 29.9267C161.409 30.662 160.685 31.246 159.755 31.6785C158.825 32.111 157.754 32.3273 156.543 32.3273Z" fill="url(#paint7_linear_17_1380)"/>
<path d="M168.117 11.0142C167.663 11.0142 167.273 10.852 166.949 10.5276C166.625 10.2032 166.462 9.80308 166.462 9.32729C166.462 8.85151 166.625 8.46223 166.949 8.15945C167.273 7.83505 167.663 7.67285 168.117 7.67285C168.571 7.67285 168.96 7.83505 169.285 8.15945C169.609 8.46223 169.771 8.85151 169.771 9.32729C169.771 9.80308 169.609 10.2032 169.285 10.5276C168.96 10.852 168.571 11.0142 168.117 11.0142ZM169.252 14.3555V32.0678H166.981V14.3555H169.252Z" fill="url(#paint8_linear_17_1380)"/>
<path d="M182.148 32.3273C180.482 32.3273 178.979 31.9596 177.638 31.2243C176.319 30.4674 175.27 29.4077 174.492 28.0452C173.735 26.6611 173.356 25.0499 173.356 23.2116C173.356 21.3734 173.746 19.773 174.524 18.4105C175.303 17.0264 176.362 15.9667 177.703 15.2314C179.044 14.4745 180.547 14.096 182.212 14.096C183.878 14.096 185.381 14.4745 186.722 15.2314C188.084 15.9667 189.144 17.0264 189.901 18.4105C190.679 19.773 191.069 21.3734 191.069 23.2116C191.069 25.0283 190.679 26.6287 189.901 28.0128C189.122 29.3969 188.052 30.4674 186.689 31.2243C185.327 31.9596 183.813 32.3273 182.148 32.3273ZM182.148 30.3485C183.315 30.3485 184.397 30.0889 185.392 29.5699C186.386 29.0292 187.187 28.229 187.792 27.1693C188.419 26.088 188.733 24.7688 188.733 23.2116C188.733 21.6545 188.43 20.3461 187.825 19.2864C187.219 18.2051 186.419 17.4049 185.424 16.8858C184.429 16.3452 183.348 16.0748 182.18 16.0748C181.012 16.0748 179.931 16.3452 178.936 16.8858C177.941 17.4049 177.141 18.2051 176.535 19.2864C175.952 20.3461 175.66 21.6545 175.66 23.2116C175.66 24.7688 175.952 26.088 176.535 27.1693C177.141 28.229 177.93 29.0292 178.904 29.5699C179.898 30.0889 180.98 30.3485 182.148 30.3485Z" fill="url(#paint9_linear_17_1380)"/>
<path d="M203.513 14.0311C205.632 14.0311 207.362 14.6907 208.703 16.0099C210.044 17.3075 210.714 19.1999 210.714 21.687V32.0678H208.476V21.9465C208.476 20.0217 207.989 18.5511 207.016 17.5346C206.065 16.5182 204.756 16.0099 203.091 16.0099C201.382 16.0099 200.02 16.5506 199.004 17.6319C197.987 18.7133 197.479 20.3028 197.479 22.4006V32.0678H195.208V14.3555H197.479V17.3724C198.041 16.2911 198.852 15.4693 199.912 14.907C200.972 14.3231 202.172 14.0311 203.513 14.0311Z" fill="url(#paint10_linear_17_1380)"/>
<defs>
<linearGradient id="paint0_linear_17_1380" x1="27.2215" y1="38.9281" x2="-6.91112" y2="9.16784" gradientUnits="userSpaceOnUse">
<stop stop-color="#FFDC73"/>
<stop offset="0.453125" stop-color="#E447CF"/>
<stop offset="1" stop-color="#47EEDF"/>
</linearGradient>
<linearGradient id="paint1_linear_17_1380" x1="108.5" y1="20" x2="272.5" y2="56.5" gradientUnits="userSpaceOnUse">
<stop stop-color="white"/>
<stop offset="1" stop-color="white" stop-opacity="0"/>
</linearGradient>
<linearGradient id="paint2_linear_17_1380" x1="108.5" y1="20" x2="272.5" y2="56.5" gradientUnits="userSpaceOnUse">
<stop stop-color="white"/>
<stop offset="1" stop-color="white" stop-opacity="0"/>
</linearGradient>
<linearGradient id="paint3_linear_17_1380" x1="108.5" y1="20" x2="272.5" y2="56.5" gradientUnits="userSpaceOnUse">
<stop stop-color="white"/>
<stop offset="1" stop-color="white" stop-opacity="0"/>
</linearGradient>
<linearGradient id="paint4_linear_17_1380" x1="108.5" y1="20" x2="272.5" y2="56.5" gradientUnits="userSpaceOnUse">
<stop stop-color="white"/>
<stop offset="1" stop-color="white" stop-opacity="0"/>
</linearGradient>
<linearGradient id="paint5_linear_17_1380" x1="108.5" y1="20" x2="272.5" y2="56.5" gradientUnits="userSpaceOnUse">
<stop stop-color="white"/>
<stop offset="1" stop-color="white" stop-opacity="0"/>
</linearGradient>
<linearGradient id="paint6_linear_17_1380" x1="108.5" y1="20" x2="272.5" y2="56.5" gradientUnits="userSpaceOnUse">
<stop stop-color="white"/>
<stop offset="1" stop-color="white" stop-opacity="0"/>
</linearGradient>
<linearGradient id="paint7_linear_17_1380" x1="108.5" y1="20" x2="272.5" y2="56.5" gradientUnits="userSpaceOnUse">
<stop stop-color="white"/>
<stop offset="1" stop-color="white" stop-opacity="0"/>
</linearGradient>
<linearGradient id="paint8_linear_17_1380" x1="108.5" y1="20" x2="272.5" y2="56.5" gradientUnits="userSpaceOnUse">
<stop stop-color="white"/>
<stop offset="1" stop-color="white" stop-opacity="0"/>
</linearGradient>
<linearGradient id="paint9_linear_17_1380" x1="108.5" y1="20" x2="272.5" y2="56.5" gradientUnits="userSpaceOnUse">
<stop stop-color="white"/>
<stop offset="1" stop-color="white" stop-opacity="0"/>
</linearGradient>
<linearGradient id="paint10_linear_17_1380" x1="108.5" y1="20" x2="272.5" y2="56.5" gradientUnits="userSpaceOnUse">
<stop stop-color="white"/>
<stop offset="1" stop-color="white" stop-opacity="0"/>
</linearGradient>
<clipPath id="clip0_17_1380">
<rect width="40" height="40" fill="white"/>
</clipPath>
</defs>
</svg>
